<svg version="1.0" xmlns="http://www.w3.org/2000/svg"
 width="159.000000pt" height="195.000000pt" viewBox="0 0 159.000000 195.000000"
 preserveAspectRatio="xMidYMid meet">
<metadata>
Created by potrace 1.10, written by Peter Selinger 2001-2011
</metadata>
<g transform="translate(0.000000,195.000000) scale(0.050000,-0.050000)"
fill="#155dfc" stroke="none">
<path d="M1350 3138 c-1008 -249 -1250 -1616 -390 -2198 1059 -716 2367 496
1746 1617 -244 441 -859 705 -1356 581z m676 -135 c463 -166 785 -652 742
-1120 -49 -544 -995 -531 -995 13 1 266 201 442 446 392 109 -23 111 -17 28
116 -225 361 -808 231 -1224 -272 -174 -210 -261 -291 -373 -344 l-100 -47
-13 44 c-23 79 -17 261 12 401 137 642 856 1040 1477 817z"/>
</g>
</svg>